<?xml version="1.0" encoding="utf-8"?>
<!-- Generator: Adobe Illustrator 19.1.0, SVG Export Plug-In . SVG Version: 6.00 Build 0)  -->
<svg version="1.1" id="Lager_1" xmlns="http://www.w3.org/2000/svg" xmlns:xlink="http://www.w3.org/1999/xlink" x="0px" y="0px"
	 viewBox="-176 53.3 489 489" style="enable-background:new -176 53.3 489 489;" xml:space="preserve">
<style type="text/css">
	.st0{fill:#9B4DCA;}
</style>
<g>
	<path class="st0" d="M68.5,53.3C-66.7,53.3-176,162.6-176,297.8S-66.7,542.3,68.5,542.3S313,433,313,297.8S203.7,53.3,68.5,53.3z
		 M-5.3,86.6c-12.9,18.1-23.9,37.2-33.1,57.2h-55.5C-69.7,118.2-39.4,98.4-5.3,86.6L-5.3,86.6z M-111.4,164.6h64.2
		c-15.1,38.9-23.4,80.4-24.6,122.8h-83.1C-152.8,241.5-137,199.2-111.4,164.6z M-111.4,431c-25.6-34.6-41.4-76.9-43.5-122.8h83.1
		c1.2,42.4,9.8,83.9,25,122.8H-111.4z M-93.9,451.8h56c9.3,20,20.3,39.3,33,57.4C-39.1,497.4-69.6,477.5-93.9,451.8z M58.1,521.3
		c-10.4-0.5-20.7-1.7-30.7-3.5c-16.6-20.5-30.8-42.6-42.3-65.9h73V521.3z M58.1,431h-82.5c-16.1-38.8-25.3-80.3-26.6-122.8H58.1V431
		z M58.1,287.4H-51c1.3-42.4,10.4-84,26.4-122.8h82.7V287.4z M58.2,143.8h-0.1h-73.2c11.6-23.5,25.8-45.6,42.5-65.9
		c10-1.9,20.3-3,30.8-3.5V143.8z M248.4,164.6c25.6,34.6,41.5,76.8,43.5,122.8h-83.1c-1.2-42.4-9.8-83.9-25-122.8H248.4z
		 M230.9,143.8h-56c-9.3-20-20.3-39.3-33.1-57.4C176.1,98.2,206.6,118.1,230.9,143.8z M78.9,74.4c10.4,0.5,20.7,1.7,30.7,3.5
		c16.6,20.5,30.8,42.6,42.3,65.9h-73V74.4z M78.9,164.6h82.5c16.1,38.7,25.3,80.3,26.6,122.8H78.9C78.9,287.4,78.9,164.6,78.9,164.6
		z M78.9,308.2H188c-1.3,42.4-10.4,84-26.4,122.8H78.9L78.9,308.2L78.9,308.2z M78.8,521.2v-69.4h0.1h73.2
		c-11.6,23.5-25.8,45.6-42.5,65.9C99.6,519.6,89.3,520.7,78.8,521.2L78.8,521.2z M141.8,509.2c12.7-18.1,23.7-37.4,32.9-57.4H231
		C206.6,477.5,176.1,497.4,141.8,509.2L141.8,509.2z M183.5,431c15-38.9,23.5-80.4,25.2-122.8H292c-2.1,45.9-17.9,88.2-43.5,122.8
		H183.5L183.5,431z"/>
</g>
</svg>
