<?xml version="1.0" encoding="iso-8859-1"?>
<!-- Generator: Adobe Illustrator 16.0.0, SVG Export Plug-In . SVG Version: 6.00 Build 0)  -->
<!DOCTYPE svg PUBLIC "-//W3C//DTD SVG 1.1//EN" "http://www.w3.org/Graphics/SVG/1.1/DTD/svg11.dtd">
<svg xmlns="http://www.w3.org/2000/svg" xmlns:xlink="http://www.w3.org/1999/xlink" version="1.1" id="Capa_1" x="0px" y="0px" width="512px" height="512px" viewBox="0 0 124.697 124.696" style="enable-background:new 0 0 124.697 124.696;" xml:space="preserve">
<g>
	<g>
		<circle cx="77.615" cy="16.705" r="12.464" fill="#933EC5"/>
		<path d="M85.906,32.203c-0.187-0.115-0.385-0.193-0.58-0.28c-1.406-0.935-2.99-1.634-4.605-2.031l-3.105,3.125l-3.011-3.16    c-0.01,0.002-0.021,0.003-0.03,0.006c-1.623,0.388-3.213,1.084-4.627,2.031c-0.215,0.093-0.431,0.182-0.637,0.309    c-3.598,2.206-7.894,1.64-13.23,0.099c-1.692-0.958-5.325-7.05-7.672-12.881c-0.343-0.854-0.904-1.551-1.59-2.065l3.318-8.522    L27.446,0l-5.058,12.991L39.364,19.6c-0.384,1.074-0.396,2.286,0.063,3.427c1.983,4.941,7.303,16.637,13.845,18.538    c2.358,0.685,6.128,1.781,10.388,1.781c0.396,0,0.795-0.012,1.198-0.033V68.24c0,1.303,0.253,2.518,0.696,3.634    c-0.034,0.251-0.057,0.507-0.057,0.767l0.002,46.338c0,3.158,2.562,5.718,5.72,5.718c3.157,0,5.719-2.562,5.719-5.72    l-0.003-39.768c0.227,0.012,0.453,0.029,0.682,0.029c0.045,0,0.088-0.006,0.133-0.006v39.744c0,3.16,2.56,5.72,5.718,5.72l0,0    c3.157,0,5.719-2.56,5.719-5.72l0.002-46.23c0.089-0.172,0.169-0.348,0.249-0.525c0.366,0.086,0.735,0.14,1.104,0.14    c1.592,0,3.149-0.784,4.074-2.222c2.723-4.23,7.34-11.942,7.674-16.056C102.85,47.188,91.041,35.353,85.906,32.203z M45.776,8.4    l2.833,1.104l-1.102,2.833C46.144,11.538,45.445,9.946,45.776,8.4z M26.748,13.424l-2.834-1.104l1.103-2.833    C26.38,10.288,27.079,11.878,26.748,13.424z M27.014,4.358l1.104-2.833l2.833,1.104C30.15,3.991,28.558,4.692,27.014,4.358z     M34.446,15.579c-2.578-1.003-3.854-3.906-2.851-6.483c1.004-2.578,3.906-3.853,6.484-2.849c2.577,1.003,3.853,3.905,2.849,6.482    C39.924,15.307,37.022,16.582,34.446,15.579z M77.585,57.688l-3.006-4.114l3.006-20.093h0.06l3.005,20.093l-3.005,4.114H77.585z     M90.373,58.294v-8.392c1.104,1.491,1.91,2.803,2.203,3.644C92.308,54.474,91.486,56.222,90.373,58.294z" fill="#933EC5"/>
		<path d="M37.734,8.208l0.265-0.681L37.25,7.236l-0.271,0.698c-0.503-0.125-0.951-0.124-1.334,0.003    c-0.417,0.14-0.71,0.416-0.87,0.825c-0.146,0.376-0.159,0.74-0.037,1.082c0.119,0.334,0.378,0.686,0.771,1.044l0.237,0.21    l-0.527,1.353c-0.209-0.094-0.437-0.226-0.672-0.393c-0.276-0.195-0.508-0.395-0.693-0.594l-0.12-0.129l-0.426,1.094l0.05,0.049    c0.348,0.358,0.846,0.676,1.481,0.945l-0.337,0.866l0.748,0.292l0.351-0.902c0.55,0.133,1.021,0.13,1.409-0.014    c0.418-0.154,0.713-0.449,0.878-0.873c0.134-0.343,0.141-0.68,0.019-1.004c-0.122-0.317-0.403-0.675-0.862-1.093l-0.208-0.188    l0.51-1.312c0.358,0.189,0.703,0.433,1.026,0.73l0.079,0.076l0.739-0.792l-0.078-0.076C38.716,8.754,38.251,8.443,37.734,8.208z     M35.946,9.207c0.047-0.121,0.129-0.2,0.254-0.246c0.104-0.039,0.234-0.048,0.389-0.026l-0.388,0.996    c-0.135-0.14-0.222-0.261-0.264-0.359C35.892,9.456,35.894,9.338,35.946,9.207z M36.698,12.398    c-0.038,0.099-0.147,0.38-0.71,0.297l0.403-1.035c0.146,0.143,0.246,0.266,0.297,0.37C36.744,12.151,36.748,12.271,36.698,12.398z    " fill="#933EC5"/>
	</g>
</g>
<g>
</g>
<g>
</g>
<g>
</g>
<g>
</g>
<g>
</g>
<g>
</g>
<g>
</g>
<g>
</g>
<g>
</g>
<g>
</g>
<g>
</g>
<g>
</g>
<g>
</g>
<g>
</g>
<g>
</g>
</svg>
